<?xml version="1.0" encoding="UTF-8"?>
<!DOCTYPE svg PUBLIC "-//W3C//DTD SVG 1.1//EN" "http://www.w3.org/Graphics/SVG/1.1/DTD/svg11.dtd">
<svg xmlns="http://www.w3.org/2000/svg" version="1.1" width="40px" height="40px" style="shape-rendering:geometricPrecision; text-rendering:geometricPrecision; image-rendering:optimizeQuality; fill-rule:evenodd; clip-rule:evenodd" xmlns:xlink="http://www.w3.org/1999/xlink">
<g><path style="opacity:1" fill="#f4f3f5" d="M 12.5,1.5 C 12.8333,1.5 13.1667,1.5 13.5,1.5C 14.1667,1.5 14.8333,1.5 15.5,1.5C 15.5,6.16667 15.5,10.8333 15.5,15.5C 10.8333,15.5 6.16667,15.5 1.5,15.5C 1.5,14.5 1.5,13.5 1.5,12.5C 3.20188,7.46471 6.53521,4.13138 11.5,2.5C 11.5,2.83333 11.5,3.16667 11.5,3.5C 3.85819,6.67849 3.85819,9.34515 11.5,11.5C 11.56,12.0431 11.8933,12.3764 12.5,12.5C 13.7582,8.78965 13.7582,5.12298 12.5,1.5 Z"/></g>
<g><path style="opacity:0.997" fill="#e9d7da" d="M 17.5,-0.5 C 18.8333,-0.5 20.1667,-0.5 21.5,-0.5C 24.1702,0.247901 26.8369,1.2479 29.5,2.5C 29.5,2.83333 29.5,3.16667 29.5,3.5C 28.4168,3.46056 27.4168,3.12723 26.5,2.5C 25.343,5.78437 25.1764,9.11771 26,12.5C 28.4476,11.0268 30.9476,9.69345 33.5,8.5C 34.1667,8.5 34.5,8.16667 34.5,7.5C 36.4121,9.65725 38.0787,11.9906 39.5,14.5C 39.5,18.1667 39.5,21.8333 39.5,25.5C 39.1667,25.5 38.8333,25.5 38.5,25.5C 33.6946,24.5128 28.6946,24.1795 23.5,24.5C 23.8195,29.3633 23.4861,34.03 22.5,38.5C 22.5,35.1667 22.5,31.8333 22.5,28.5C 22.5,26.8333 22.5,25.1667 22.5,23.5C 27.5111,23.6659 32.5111,23.4993 37.5,23C 38.4231,20.9592 38.7564,18.7925 38.5,16.5C 33.1667,16.5 27.8333,16.5 22.5,16.5C 22.5,11.5 22.5,6.5 22.5,1.5C 20.1667,1.5 17.8333,1.5 15.5,1.5C 14.8333,1.5 14.1667,1.5 13.5,1.5C 14.8333,0.833333 16.1667,0.166667 17.5,-0.5 Z"/></g>
<g><path style="opacity:1" fill="#d94154" d="M 15.5,1.5 C 17.8333,1.5 20.1667,1.5 22.5,1.5C 22.5,6.5 22.5,11.5 22.5,16.5C 27.8333,16.5 33.1667,16.5 38.5,16.5C 38.7564,18.7925 38.4231,20.9592 37.5,23C 32.5111,23.4993 27.5111,23.6659 22.5,23.5C 22.5,25.1667 22.5,26.8333 22.5,28.5C 20.1667,28.5 17.8333,28.5 15.5,28.5C 15.5,26.8333 15.5,25.1667 15.5,23.5C 10.8333,23.5 6.16667,23.5 1.5,23.5C 1.5,21.1667 1.5,18.8333 1.5,16.5C 6.36329,16.8195 11.03,16.4861 15.5,15.5C 15.5,10.8333 15.5,6.16667 15.5,1.5 Z"/></g>
<g><path style="opacity:1" fill="#858998" d="M 29.5,2.5 C 32.1894,3.18936 33.8561,4.85603 34.5,7.5C 34.5,8.16667 34.1667,8.5 33.5,8.5C 32.2497,6.84593 30.9163,5.17927 29.5,3.5C 29.5,3.16667 29.5,2.83333 29.5,2.5 Z"/></g>
<g><path style="opacity:1" fill="#334b94" d="M 11.5,3.5 C 12.8333,6.16667 12.8333,8.83333 11.5,11.5C 3.85819,9.34515 3.85819,6.67849 11.5,3.5 Z"/></g>
<g><path style="opacity:1" fill="#324b94" d="M 29.5,3.5 C 30.9163,5.17927 32.2497,6.84593 33.5,8.5C 30.9476,9.69345 28.4476,11.0268 26,12.5C 25.1764,9.11771 25.343,5.78437 26.5,2.5C 27.4168,3.12723 28.4168,3.46056 29.5,3.5 Z"/></g>
<g><path style="opacity:1" fill="#8d9bc1" d="M 12.5,1.5 C 13.7582,5.12298 13.7582,8.78965 12.5,12.5C 11.8933,12.3764 11.56,12.0431 11.5,11.5C 12.8333,8.83333 12.8333,6.16667 11.5,3.5C 11.5,3.16667 11.5,2.83333 11.5,2.5C 11.5,1.83333 11.8333,1.5 12.5,1.5 Z"/></g>
<g><path style="opacity:1" fill="#da4b58" d="M 2.5,11.5 C 3.47344,11.9867 4.47344,12.4867 5.5,13C 3.84254,13.7252 2.84254,13.2252 2.5,11.5 Z"/></g>
<g><path style="opacity:1" fill="#db4a5b" d="M 33.5,9.5 C 35.5492,9.70575 35.8825,10.5391 34.5,12C 32.3046,13.373 29.9712,13.7063 27.5,13C 29.7274,12.059 31.7274,10.8923 33.5,9.5 Z"/></g>
<g><path style="opacity:1" fill="#e0b7bb" d="M 1.5,12.5 C 1.5,13.5 1.5,14.5 1.5,15.5C 6.16667,15.5 10.8333,15.5 15.5,15.5C 11.03,16.4861 6.36329,16.8195 1.5,16.5C 1.5,18.8333 1.5,21.1667 1.5,23.5C 1.5,24.8333 1.5,26.1667 1.5,27.5C 0.833333,25.5 0.166667,23.5 -0.5,21.5C -0.5,21.1667 -0.5,20.8333 -0.5,20.5C 0.166667,17.8333 0.833333,15.1667 1.5,12.5 Z"/></g>
<g><path style="opacity:1" fill="#efecf0" d="M 1.5,23.5 C 6.16667,23.5 10.8333,23.5 15.5,23.5C 15.5,25.1667 15.5,26.8333 15.5,28.5C 15.5,31.8333 15.5,35.1667 15.5,38.5C 17.8333,38.5 20.1667,38.5 22.5,38.5C 23.4861,34.03 23.8195,29.3633 23.5,24.5C 28.6946,24.1795 33.6946,24.5128 38.5,25.5C 38.5,25.8333 38.5,26.1667 38.5,26.5C 36.2625,25.4634 33.9291,25.2967 31.5,26C 32.0442,26.7172 32.7109,27.2172 33.5,27.5C 34.609,27.5569 35.609,27.8902 36.5,28.5C 36.5,29.1667 36.5,29.8333 36.5,30.5C 36.5,31.1667 36.1667,31.5 35.5,31.5C 34.609,30.8902 33.609,30.5569 32.5,30.5C 30.1602,29.914 27.9935,28.914 26,27.5C 25.1925,31.0267 25.3592,34.3601 26.5,37.5C 26.5,37.8333 26.5,38.1667 26.5,38.5C 25.5084,38.3284 24.8417,38.6618 24.5,39.5C 20.8333,39.5 17.1667,39.5 13.5,39.5C 13.5,39.1667 13.5,38.8333 13.5,38.5C 13.815,34.6286 13.4816,30.9619 12.5,27.5C 10.2872,28.7729 7.95384,29.7729 5.5,30.5C 4.83333,30.5 4.5,30.1667 4.5,29.5C 12.3638,26.7315 12.0304,26.0649 3.5,27.5C 2.83333,27.8333 2.16667,28.1667 1.5,28.5C 1.5,28.1667 1.5,27.8333 1.5,27.5C 1.5,26.1667 1.5,24.8333 1.5,23.5 Z"/></g>
<g><path style="opacity:1" fill="#ca979d" d="M 38.5,26.5 C 38.3404,28.153 37.6737,29.4863 36.5,30.5C 36.5,29.8333 36.5,29.1667 36.5,28.5C 35.9473,26.4482 34.9473,26.1148 33.5,27.5C 32.7109,27.2172 32.0442,26.7172 31.5,26C 33.9291,25.2967 36.2625,25.4634 38.5,26.5 Z"/></g>
<g><path style="opacity:1" fill="#d5323f" d="M 4.5,29.5 C 3.66175,29.1583 3.32842,28.4916 3.5,27.5C 12.0304,26.0649 12.3638,26.7315 4.5,29.5 Z"/></g>
<g><path style="opacity:1" fill="#d3283a" d="M 33.5,27.5 C 34.9473,26.1148 35.9473,26.4482 36.5,28.5C 35.609,27.8902 34.609,27.5569 33.5,27.5 Z"/></g>
<g><path style="opacity:1" fill="#d0192f" d="M 15.5,28.5 C 17.8333,28.5 20.1667,28.5 22.5,28.5C 22.5,31.8333 22.5,35.1667 22.5,38.5C 20.1667,38.5 17.8333,38.5 15.5,38.5C 15.5,35.1667 15.5,31.8333 15.5,28.5 Z"/></g>
<g><path style="opacity:1" fill="#05267e" d="M 32.5,30.5 C 32.6107,31.1174 32.944,31.6174 33.5,32C 31.46,34.3358 29.1267,36.1692 26.5,37.5C 25.3592,34.3601 25.1925,31.0267 26,27.5C 27.9935,28.914 30.1602,29.914 32.5,30.5 Z"/></g>
<g><path style="opacity:1" fill="#9e9fad" d="M 3.5,27.5 C 3.32842,28.4916 3.66175,29.1583 4.5,29.5C 4.5,30.1667 4.83333,30.5 5.5,30.5C 6.52791,33.3704 8.52791,35.3704 11.5,36.5C 12.4841,33.5719 12.8174,30.5719 12.5,27.5C 13.4816,30.9619 13.815,34.6286 13.5,38.5C 8.01652,37.0222 4.01652,33.6888 1.5,28.5C 2.16667,28.1667 2.83333,27.8333 3.5,27.5 Z"/></g>
<g><path style="opacity:1" fill="#0b2980" d="M 12.5,27.5 C 12.8174,30.5719 12.4841,33.5719 11.5,36.5C 8.52791,35.3704 6.52791,33.3704 5.5,30.5C 7.95384,29.7729 10.2872,28.7729 12.5,27.5 Z"/></g>
<g><path style="opacity:0.498" fill="#a1a5b1" d="M 32.5,30.5 C 33.609,30.5569 34.609,30.8902 35.5,31.5C 33.3599,34.9773 30.3599,37.3106 26.5,38.5C 26.5,38.1667 26.5,37.8333 26.5,37.5C 29.1267,36.1692 31.46,34.3358 33.5,32C 32.944,31.6174 32.6107,31.1174 32.5,30.5 Z"/></g>
</svg>
