<?xml version="1.0" encoding="UTF-8"?>
<!DOCTYPE svg PUBLIC "-//W3C//DTD SVG 1.1//EN" "http://www.w3.org/Graphics/SVG/1.1/DTD/svg11.dtd">
<svg xmlns="http://www.w3.org/2000/svg" version="1.1" width="55" height="55" style="shape-rendering:geometricPrecision; text-rendering:geometricPrecision; image-rendering:optimizeQuality; fill-rule:evenodd; clip-rule:evenodd" xmlns:xlink="http://www.w3.org/1999/xlink">
<g><path style="opacity:1" fill="#f4f4f4" d="M -0.5,-0.5 C 52.5,-0.5 105.5,-0.5 158.5,-0.5C 158.5,4.83333 158.5,10.1667 158.5,15.5C 151.833,15.5 145.167,15.5 138.5,15.5C 138.666,20.5111 138.499,25.5111 138,30.5C 135.118,31.3578 132.618,32.8578 130.5,35C 126.514,35.4988 122.514,35.6655 118.5,35.5C 118.5,28.8333 118.5,22.1667 118.5,15.5C 111.833,15.5 105.167,15.5 98.5,15.5C 98.5,22.1667 98.5,28.8333 98.5,35.5C 91.8333,35.5 85.1667,35.5 78.5,35.5C 78.5,42.1667 78.5,48.8333 78.5,55.5C 71.8333,55.5 65.1667,55.5 58.5,55.5C 58.5,62.1667 58.5,68.8333 58.5,75.5C 51.8333,75.5 45.1667,75.5 38.5,75.5C 38.5,82.1667 38.5,88.8333 38.5,95.5C 31.8333,95.5 25.1667,95.5 18.5,95.5C 18.5,102.167 18.5,108.833 18.5,115.5C 12.1667,115.5 5.83333,115.5 -0.5,115.5C -0.5,76.8333 -0.5,38.1667 -0.5,-0.5 Z"/></g>
<g><path style="opacity:1" fill="#fdfdfd" d="M 158.5,-0.5 C 271.833,-0.5 385.167,-0.5 498.5,-0.5C 498.5,4.83333 498.5,10.1667 498.5,15.5C 491.833,15.5 485.167,15.5 478.5,15.5C 478.5,22.1667 478.5,28.8333 478.5,35.5C 471.833,35.5 465.167,35.5 458.5,35.5C 458.5,28.8333 458.5,22.1667 458.5,15.5C 451.833,15.5 445.167,15.5 438.5,15.5C 438.5,22.1667 438.5,28.8333 438.5,35.5C 431.833,35.5 425.167,35.5 418.5,35.5C 418.5,42.1667 418.5,48.8333 418.5,55.5C 425.167,55.5 431.833,55.5 438.5,55.5C 438.5,62.1667 438.5,68.8333 438.5,75.5C 445.167,75.5 451.833,75.5 458.5,75.5C 458.5,82.1667 458.5,88.8333 458.5,95.5C 465.167,95.5 471.833,95.5 478.5,95.5C 478.5,102.167 478.5,108.833 478.5,115.5C 485.167,115.5 491.833,115.5 498.5,115.5C 498.5,122.167 498.5,128.833 498.5,135.5C 491.833,135.5 485.167,135.5 478.5,135.5C 478.5,142.167 478.5,148.833 478.5,155.5C 485.167,155.5 491.833,155.5 498.5,155.5C 498.5,162.167 498.5,168.833 498.5,175.5C 493.125,175.172 487.792,175.505 482.5,176.5C 485.053,182.595 486.719,188.929 487.5,195.5C 491.167,195.5 494.833,195.5 498.5,195.5C 498.5,202.167 498.5,208.833 498.5,215.5C 496.5,215.5 494.5,215.5 492.5,215.5C 492.612,222.18 492.946,228.847 493.5,235.5C 495.167,235.5 496.833,235.5 498.5,235.5C 498.5,242.167 498.5,248.833 498.5,255.5C 496.549,255.773 495.049,255.107 494,253.5C 493.82,266.271 492.653,278.938 490.5,291.5C 476.063,366.737 436.063,423.903 370.5,463C 290.903,505.586 210.903,506.253 130.5,465C 64.2316,426.541 23.2316,369.707 7.5,294.5C 5.45787,281.58 4.12454,268.58 3.5,255.5C 2.16667,255.5 0.833333,255.5 -0.5,255.5C -0.5,222.167 -0.5,188.833 -0.5,155.5C 5.83333,155.5 12.1667,155.5 18.5,155.5C 18.5,148.833 18.5,142.167 18.5,135.5C 12.1667,135.5 5.83333,135.5 -0.5,135.5C -0.5,128.833 -0.5,122.167 -0.5,115.5C 5.83333,115.5 12.1667,115.5 18.5,115.5C 18.5,108.833 18.5,102.167 18.5,95.5C 25.1667,95.5 31.8333,95.5 38.5,95.5C 38.5,88.8333 38.5,82.1667 38.5,75.5C 45.1667,75.5 51.8333,75.5 58.5,75.5C 58.5,68.8333 58.5,62.1667 58.5,55.5C 65.1667,55.5 71.8333,55.5 78.5,55.5C 78.5,48.8333 78.5,42.1667 78.5,35.5C 85.1667,35.5 91.8333,35.5 98.5,35.5C 98.5,28.8333 98.5,22.1667 98.5,15.5C 105.167,15.5 111.833,15.5 118.5,15.5C 118.5,22.1667 118.5,28.8333 118.5,35.5C 122.514,35.6655 126.514,35.4988 130.5,35C 132.618,32.8578 135.118,31.3578 138,30.5C 138.499,25.5111 138.666,20.5111 138.5,15.5C 145.167,15.5 151.833,15.5 158.5,15.5C 158.5,10.1667 158.5,4.83333 158.5,-0.5 Z"/></g>
<g><path style="opacity:1" fill="#eeeeee" d="M 418.5,35.5 C 411.833,35.5 405.167,35.5 398.5,35.5C 398.5,28.8333 398.5,22.1667 398.5,15.5C 405.167,15.5 411.833,15.5 418.5,15.5C 418.5,22.1667 418.5,28.8333 418.5,35.5 Z"/></g>
<g><path style="opacity:1" fill="#eeeeee" d="M 458.5,35.5 C 451.833,35.5 445.167,35.5 438.5,35.5C 438.5,28.8333 438.5,22.1667 438.5,15.5C 445.167,15.5 451.833,15.5 458.5,15.5C 458.5,22.1667 458.5,28.8333 458.5,35.5 Z"/></g>
<g><path style="opacity:1" fill="#f5f5f5" d="M 498.5,-0.5 C 499.167,-0.5 499.833,-0.5 500.5,-0.5C 500.5,167.167 500.5,334.833 500.5,502.5C 423.833,502.5 347.167,502.5 270.5,502.5C 327.305,496.427 376.638,474.093 418.5,435.5C 418.5,442.167 418.5,448.833 418.5,455.5C 411.833,455.5 405.167,455.5 398.5,455.5C 398.5,462.167 398.5,468.833 398.5,475.5C 405.167,475.5 411.833,475.5 418.5,475.5C 425.167,475.5 431.833,475.5 438.5,475.5C 445.167,475.5 451.833,475.5 458.5,475.5C 465.167,475.5 471.833,475.5 478.5,475.5C 478.5,468.833 478.5,462.167 478.5,455.5C 478.5,448.833 478.5,442.167 478.5,435.5C 478.5,428.833 478.5,422.167 478.5,415.5C 478.5,408.833 478.5,402.167 478.5,395.5C 478.5,388.833 478.5,382.167 478.5,375.5C 473.833,375.5 469.167,375.5 464.5,375.5C 476.81,351.403 485.644,326.07 491,299.5C 491.801,296.633 491.634,293.966 490.5,291.5C 492.653,278.938 493.82,266.271 494,253.5C 495.049,255.107 496.549,255.773 498.5,255.5C 498.5,248.833 498.5,242.167 498.5,235.5C 496.833,235.5 495.167,235.5 493.5,235.5C 492.946,228.847 492.612,222.18 492.5,215.5C 494.5,215.5 496.5,215.5 498.5,215.5C 498.5,208.833 498.5,202.167 498.5,195.5C 494.833,195.5 491.167,195.5 487.5,195.5C 486.719,188.929 485.053,182.595 482.5,176.5C 487.792,175.505 493.125,175.172 498.5,175.5C 498.5,168.833 498.5,162.167 498.5,155.5C 491.833,155.5 485.167,155.5 478.5,155.5C 478.5,148.833 478.5,142.167 478.5,135.5C 485.167,135.5 491.833,135.5 498.5,135.5C 498.5,128.833 498.5,122.167 498.5,115.5C 491.833,115.5 485.167,115.5 478.5,115.5C 478.5,108.833 478.5,102.167 478.5,95.5C 478.5,88.8333 478.5,82.1667 478.5,75.5C 478.5,68.8333 478.5,62.1667 478.5,55.5C 478.5,48.8333 478.5,42.1667 478.5,35.5C 478.5,28.8333 478.5,22.1667 478.5,15.5C 485.167,15.5 491.833,15.5 498.5,15.5C 498.5,10.1667 498.5,4.83333 498.5,-0.5 Z"/></g>
<g><path style="opacity:1" fill="#d0162c" d="M 286.5,18.5 C 287.452,24.0748 287.786,29.7414 287.5,35.5C 275.19,34.2531 262.857,33.2531 250.5,32.5C 241.158,32.8339 231.825,33.3339 222.5,34C 213.106,35.3651 203.773,36.8651 194.5,38.5C 194.172,33.1254 194.505,27.7921 195.5,22.5C 212.132,17.5624 229.132,15.5624 246.5,16.5C 259.883,16.3896 273.216,17.0563 286.5,18.5 Z"/></g>
<g><path style="opacity:1" fill="#da4356" d="M 287.5,35.5 C 287.168,91.3358 287.501,147.002 288.5,202.5C 345.5,202.5 402.5,202.5 459.5,202.5C 464.155,221.522 465.655,240.855 464,260.5C 454.286,273.71 443.119,285.377 430.5,295.5C 382.833,295.5 335.167,295.5 287.5,295.5C 287.5,314.5 287.5,333.5 287.5,352.5C 256.408,355.601 225.408,354.935 194.5,350.5C 194.5,332.5 194.5,314.5 194.5,296.5C 136.331,296.832 78.3309,296.499 20.5,295.5C 34.5159,295.833 48.5159,295.499 62.5,294.5C 51.8333,285.833 42.1667,276.167 33.5,265.5C 31.9669,244.367 32.9669,223.367 36.5,202.5C 89.1667,202.5 141.833,202.5 194.5,202.5C 194.5,147.833 194.5,93.1667 194.5,38.5C 203.773,36.8651 213.106,35.3651 222.5,34C 231.825,33.3339 241.158,32.8339 250.5,32.5C 262.857,33.2531 275.19,34.2531 287.5,35.5 Z"/></g>
<g><path style="opacity:1" fill="#eeeeee" d="M 418.5,35.5 C 425.167,35.5 431.833,35.5 438.5,35.5C 438.5,42.1667 438.5,48.8333 438.5,55.5C 431.833,55.5 425.167,55.5 418.5,55.5C 418.5,48.8333 418.5,42.1667 418.5,35.5 Z"/></g>
<g><path style="opacity:1" fill="#fefefe" d="M 438.5,35.5 C 445.167,35.5 451.833,35.5 458.5,35.5C 458.5,42.1667 458.5,48.8333 458.5,55.5C 451.833,55.5 445.167,55.5 438.5,55.5C 438.5,48.8333 438.5,42.1667 438.5,35.5 Z"/></g>
<g><path style="opacity:1" fill="#eeeeee" d="M 458.5,35.5 C 465.167,35.5 471.833,35.5 478.5,35.5C 478.5,42.1667 478.5,48.8333 478.5,55.5C 471.833,55.5 465.167,55.5 458.5,55.5C 458.5,48.8333 458.5,42.1667 458.5,35.5 Z"/></g>
<g><path style="opacity:1" fill="#03247d" d="M 163.5,50.5 C 131.179,63.9141 104.013,84.2475 82,111.5C 80.7292,112.883 79.2292,113.883 77.5,114.5C 72.5765,112.705 67.9099,110.372 63.5,107.5C 89.9859,73.2687 123.319,48.2687 163.5,32.5C 163.5,38.5 163.5,44.5 163.5,50.5 Z"/></g>
<g><path style="opacity:1" fill="#f09ca7" d="M 286.5,18.5 C 288.496,79.4909 289.163,140.824 288.5,202.5C 287.501,147.002 287.168,91.3358 287.5,35.5C 287.786,29.7414 287.452,24.0748 286.5,18.5 Z"/></g>
<g><path style="opacity:1" fill="#335096" d="M 319.5,44.5 C 341.013,52.1941 361.013,62.6941 379.5,76C 392.018,86.6875 404.018,97.8542 415.5,109.5C 383.767,125.867 351.767,141.867 319.5,157.5C 319.5,119.833 319.5,82.1667 319.5,44.5 Z"/></g>
<g><path style="opacity:1" fill="#04247d" d="M 320.5,27.5 C 359.931,40.463 393.764,62.1297 422,92.5C 424.692,95.6919 427.192,99.0252 429.5,102.5C 424.984,105.222 420.317,107.555 415.5,109.5C 404.018,97.8542 392.018,86.6875 379.5,76C 361.013,62.6941 341.013,52.1941 319.5,44.5C 319.178,38.642 319.511,32.9753 320.5,27.5 Z"/></g>
<g><path style="opacity:1" fill="#96a5c9" d="M 320.5,27.5 C 319.511,32.9753 319.178,38.642 319.5,44.5C 319.5,82.1667 319.5,119.833 319.5,157.5C 318.169,113.998 318.169,70.3315 319.5,26.5C 320.107,26.6236 320.44,26.9569 320.5,27.5 Z"/></g>
<g><path style="opacity:1" fill="#eeeeee" d="M 438.5,55.5 C 445.167,55.5 451.833,55.5 458.5,55.5C 458.5,62.1667 458.5,68.8333 458.5,75.5C 451.833,75.5 445.167,75.5 438.5,75.5C 438.5,68.8333 438.5,62.1667 438.5,55.5 Z"/></g>
<g><path style="opacity:1" fill="#fefefe" d="M 458.5,55.5 C 465.167,55.5 471.833,55.5 478.5,55.5C 478.5,62.1667 478.5,68.8333 478.5,75.5C 471.833,75.5 465.167,75.5 458.5,75.5C 458.5,68.8333 458.5,62.1667 458.5,55.5 Z"/></g>
<g><path style="opacity:1" fill="#334f95" d="M 163.5,50.5 C 163.833,86.1729 163.5,121.84 162.5,157.5C 133.95,143.392 105.617,129.059 77.5,114.5C 79.2292,113.883 80.7292,112.883 82,111.5C 104.013,84.2475 131.179,63.9141 163.5,50.5 Z"/></g>
<g><path style="opacity:1" fill="#eeeeee" d="M 458.5,75.5 C 465.167,75.5 471.833,75.5 478.5,75.5C 478.5,82.1667 478.5,88.8333 478.5,95.5C 471.833,95.5 465.167,95.5 458.5,95.5C 458.5,88.8333 458.5,82.1667 458.5,75.5 Z"/></g>
<g><path style="opacity:1" fill="#d0192e" d="M 442.5,148.5 C 441.5,148.5 440.5,148.5 439.5,148.5C 439.509,146.692 439.009,145.025 438,143.5C 433.182,136.857 429.015,129.857 425.5,122.5C 429.719,119.806 434.219,117.473 439,115.5C 445.616,123.221 451.116,131.721 455.5,141C 451.853,144.496 447.52,146.996 442.5,148.5 Z"/></g>
<g><path style="opacity:1" fill="#da4457" d="M 425.5,122.5 C 429.015,129.857 433.182,136.857 438,143.5C 439.009,145.025 439.509,146.692 439.5,148.5C 440.5,148.5 441.5,148.5 442.5,148.5C 428.051,156.226 413.384,163.726 398.5,171C 374.833,171.667 351.167,171.667 327.5,171C 360.039,154.564 392.705,138.397 425.5,122.5 Z"/></g>
<g><path style="opacity:1" fill="#eeeeee" d="M -0.5,135.5 C 5.83333,135.5 12.1667,135.5 18.5,135.5C 18.5,142.167 18.5,148.833 18.5,155.5C 12.1667,155.5 5.83333,155.5 -0.5,155.5C -0.5,148.833 -0.5,142.167 -0.5,135.5 Z"/></g>
<g><path style="opacity:1" fill="#d0182e" d="M 53.5,155.5 C 50.9406,160.62 48.9406,165.953 47.5,171.5C 41.1579,171.666 34.8246,171.5 28.5,171C 31.4458,163.498 34.7791,156.165 38.5,149C 40.1686,148.878 41.8353,149.212 43.5,150C 46.6999,152.099 50.0333,153.933 53.5,155.5 Z"/></g>
<g><path style="opacity:1" fill="#da4456" d="M 53.5,155.5 C 63.8068,160.653 74.1401,165.82 84.5,171C 72.1712,171.5 59.8378,171.667 47.5,171.5C 48.9406,165.953 50.9406,160.62 53.5,155.5 Z"/></g>
<g><path style="opacity:1" fill="#d0182d" d="M 36.5,202.5 C 32.9669,223.367 31.9669,244.367 33.5,265.5C 42.1667,276.167 51.8333,285.833 62.5,294.5C 48.5159,295.499 34.5159,295.833 20.5,295.5C 17.1333,280.325 15.4666,264.825 15.5,249C 15.9901,233.423 17.3235,217.923 19.5,202.5C 25.1667,202.5 30.8333,202.5 36.5,202.5 Z"/></g>
<g><path style="opacity:1" fill="#d0152c" d="M 459.5,202.5 C 465.5,202.5 471.5,202.5 477.5,202.5C 482.784,233.492 482.784,264.492 477.5,295.5C 461.833,295.5 446.167,295.5 430.5,295.5C 443.119,285.377 454.286,273.71 464,260.5C 465.655,240.855 464.155,221.522 459.5,202.5 Z"/></g>
<g><path style="opacity:1" fill="#fefefe" d="M -0.5,355.5 C 5.83333,355.5 12.1667,355.5 18.5,355.5C 18.5,362.167 18.5,368.833 18.5,375.5C 12.1667,375.5 5.83333,375.5 -0.5,375.5C -0.5,368.833 -0.5,362.167 -0.5,355.5 Z"/></g>
<g><path style="opacity:1" fill="#eeeeee" d="M -0.5,375.5 C 5.83333,375.5 12.1667,375.5 18.5,375.5C 18.5,382.167 18.5,388.833 18.5,395.5C 12.1667,395.5 5.83333,395.5 -0.5,395.5C -0.5,388.833 -0.5,382.167 -0.5,375.5 Z"/></g>
<g><path style="opacity:1" fill="#fefefe" d="M -0.5,395.5 C 5.83333,395.5 12.1667,395.5 18.5,395.5C 18.5,402.167 18.5,408.833 18.5,415.5C 12.1667,415.5 5.83333,415.5 -0.5,415.5C -0.5,408.833 -0.5,402.167 -0.5,395.5 Z"/></g>
<g><path style="opacity:1" fill="#eeeeee" d="M 18.5,395.5 C 25.1667,395.5 31.8333,395.5 38.5,395.5C 38.5,402.167 38.5,408.833 38.5,415.5C 31.8333,415.5 25.1667,415.5 18.5,415.5C 18.5,408.833 18.5,402.167 18.5,395.5 Z"/></g>
<g><path style="opacity:1" fill="#fdfdfd" d="M 464.5,375.5 C 469.167,375.5 473.833,375.5 478.5,375.5C 478.5,382.167 478.5,388.833 478.5,395.5C 471.833,395.5 465.167,395.5 458.5,395.5C 458.5,402.167 458.5,408.833 458.5,415.5C 451.833,415.5 445.167,415.5 438.5,415.5C 438.5,422.167 438.5,428.833 438.5,435.5C 431.833,435.5 425.167,435.5 418.5,435.5C 436.547,417.47 451.88,397.47 464.5,375.5 Z"/></g>
<g><path style="opacity:1" fill="#eeeeee" d="M 478.5,395.5 C 478.5,402.167 478.5,408.833 478.5,415.5C 471.833,415.5 465.167,415.5 458.5,415.5C 458.5,408.833 458.5,402.167 458.5,395.5C 465.167,395.5 471.833,395.5 478.5,395.5 Z"/></g>
<g><path style="opacity:1" fill="#eeeeee" d="M -0.5,415.5 C 5.83333,415.5 12.1667,415.5 18.5,415.5C 18.5,422.167 18.5,428.833 18.5,435.5C 12.1667,435.5 5.83333,435.5 -0.5,435.5C -0.5,428.833 -0.5,422.167 -0.5,415.5 Z"/></g>
<g><path style="opacity:1" fill="#f4f4f4" d="M -0.5,255.5 C 0.833333,255.5 2.16667,255.5 3.5,255.5C 4.12454,268.58 5.45787,281.58 7.5,294.5C 6.85287,295.274 6.51954,296.274 6.5,297.5C 16.2857,351.188 40.2857,397.188 78.5,435.5C 78.5,442.167 78.5,448.833 78.5,455.5C 85.1667,455.5 91.8333,455.5 98.5,455.5C 98.5,462.167 98.5,468.833 98.5,475.5C 91.8333,475.5 85.1667,475.5 78.5,475.5C 78.5,482.167 78.5,488.833 78.5,495.5C 71.8333,495.5 65.1667,495.5 58.5,495.5C 58.5,488.833 58.5,482.167 58.5,475.5C 51.8333,475.5 45.1667,475.5 38.5,475.5C 38.5,482.167 38.5,488.833 38.5,495.5C 31.8333,495.5 25.1667,495.5 18.5,495.5C 18.5,488.833 18.5,482.167 18.5,475.5C 18.5,468.833 18.5,462.167 18.5,455.5C 18.5,448.833 18.5,442.167 18.5,435.5C 18.5,428.833 18.5,422.167 18.5,415.5C 25.1667,415.5 31.8333,415.5 38.5,415.5C 38.5,408.833 38.5,402.167 38.5,395.5C 31.8333,395.5 25.1667,395.5 18.5,395.5C 18.5,388.833 18.5,382.167 18.5,375.5C 18.5,368.833 18.5,362.167 18.5,355.5C 12.1667,355.5 5.83333,355.5 -0.5,355.5C -0.5,322.167 -0.5,288.833 -0.5,255.5 Z"/></g>
<g><path style="opacity:1" fill="#eeeeee" d="M 458.5,415.5 C 458.5,422.167 458.5,428.833 458.5,435.5C 451.833,435.5 445.167,435.5 438.5,435.5C 438.5,428.833 438.5,422.167 438.5,415.5C 445.167,415.5 451.833,415.5 458.5,415.5 Z"/></g>
<g><path style="opacity:1" fill="#fefefe" d="M 458.5,415.5 C 465.167,415.5 471.833,415.5 478.5,415.5C 478.5,422.167 478.5,428.833 478.5,435.5C 471.833,435.5 465.167,435.5 458.5,435.5C 458.5,428.833 458.5,422.167 458.5,415.5 Z"/></g>
<g><path style="opacity:1" fill="#fefefe" d="M -0.5,435.5 C 5.83333,435.5 12.1667,435.5 18.5,435.5C 18.5,442.167 18.5,448.833 18.5,455.5C 12.1667,455.5 5.83333,455.5 -0.5,455.5C -0.5,448.833 -0.5,442.167 -0.5,435.5 Z"/></g>
<g><path style="opacity:1" fill="#eeeeee" d="M 418.5,435.5 C 425.167,435.5 431.833,435.5 438.5,435.5C 438.5,442.167 438.5,448.833 438.5,455.5C 431.833,455.5 425.167,455.5 418.5,455.5C 418.5,448.833 418.5,442.167 418.5,435.5 Z"/></g>
<g><path style="opacity:1" fill="#fefefe" d="M 438.5,435.5 C 445.167,435.5 451.833,435.5 458.5,435.5C 458.5,442.167 458.5,448.833 458.5,455.5C 451.833,455.5 445.167,455.5 438.5,455.5C 438.5,448.833 438.5,442.167 438.5,435.5 Z"/></g>
<g><path style="opacity:1" fill="#eeeeee" d="M 458.5,435.5 C 465.167,435.5 471.833,435.5 478.5,435.5C 478.5,442.167 478.5,448.833 478.5,455.5C 471.833,455.5 465.167,455.5 458.5,455.5C 458.5,448.833 458.5,442.167 458.5,435.5 Z"/></g>
<g><path style="opacity:1" fill="#eeeeee" d="M -0.5,455.5 C 5.83333,455.5 12.1667,455.5 18.5,455.5C 18.5,462.167 18.5,468.833 18.5,475.5C 12.1667,475.5 5.83333,475.5 -0.5,475.5C -0.5,468.833 -0.5,462.167 -0.5,455.5 Z"/></g>
<g><path style="opacity:1" fill="#eeeeee" d="M 418.5,455.5 C 418.5,462.167 418.5,468.833 418.5,475.5C 411.833,475.5 405.167,475.5 398.5,475.5C 398.5,468.833 398.5,462.167 398.5,455.5C 405.167,455.5 411.833,455.5 418.5,455.5 Z"/></g>
<g><path style="opacity:1" fill="#fefefe" d="M 418.5,455.5 C 425.167,455.5 431.833,455.5 438.5,455.5C 438.5,462.167 438.5,468.833 438.5,475.5C 431.833,475.5 425.167,475.5 418.5,475.5C 418.5,468.833 418.5,462.167 418.5,455.5 Z"/></g>
<g><path style="opacity:1" fill="#eeeeee" d="M 438.5,455.5 C 445.167,455.5 451.833,455.5 458.5,455.5C 458.5,462.167 458.5,468.833 458.5,475.5C 451.833,475.5 445.167,475.5 438.5,475.5C 438.5,468.833 438.5,462.167 438.5,455.5 Z"/></g>
<g><path style="opacity:1" fill="#fefefe" d="M 458.5,455.5 C 465.167,455.5 471.833,455.5 478.5,455.5C 478.5,462.167 478.5,468.833 478.5,475.5C 471.833,475.5 465.167,475.5 458.5,475.5C 458.5,468.833 458.5,462.167 458.5,455.5 Z"/></g>
<g><path style="opacity:1" fill="#f8f8f8" d="M 78.5,435.5 C 110.209,464.307 146.876,484.474 188.5,496C 201.507,499.04 214.507,501.206 227.5,502.5C 151.5,502.5 75.5,502.5 -0.5,502.5C -0.5,493.5 -0.5,484.5 -0.5,475.5C 5.83333,475.5 12.1667,475.5 18.5,475.5C 18.5,482.167 18.5,488.833 18.5,495.5C 25.1667,495.5 31.8333,495.5 38.5,495.5C 38.5,488.833 38.5,482.167 38.5,475.5C 45.1667,475.5 51.8333,475.5 58.5,475.5C 58.5,482.167 58.5,488.833 58.5,495.5C 65.1667,495.5 71.8333,495.5 78.5,495.5C 78.5,488.833 78.5,482.167 78.5,475.5C 85.1667,475.5 91.8333,475.5 98.5,475.5C 98.5,468.833 98.5,462.167 98.5,455.5C 91.8333,455.5 85.1667,455.5 78.5,455.5C 78.5,448.833 78.5,442.167 78.5,435.5 Z"/></g>
<g><path style="opacity:1" fill="#c6c6c6" d="M 490.5,291.5 C 491.634,293.966 491.801,296.633 491,299.5C 485.644,326.07 476.81,351.403 464.5,375.5C 451.88,397.47 436.547,417.47 418.5,435.5C 376.638,474.093 327.305,496.427 270.5,502.5C 256.167,502.5 241.833,502.5 227.5,502.5C 214.507,501.206 201.507,499.04 188.5,496C 146.876,484.474 110.209,464.307 78.5,435.5C 40.2857,397.188 16.2857,351.188 6.5,297.5C 6.51954,296.274 6.85287,295.274 7.5,294.5C 23.2316,369.707 64.2316,426.541 130.5,465C 210.903,506.253 290.903,505.586 370.5,463C 436.063,423.903 476.063,366.737 490.5,291.5 Z"/></g>
<g><path style="opacity:1" fill="#01237d" d="M 325.5,344.5 C 360.268,361.384 394.935,378.551 429.5,396C 400.89,431.478 364.89,456.311 321.5,470.5C 319.506,429.513 318.839,388.18 319.5,346.5C 321.786,346.405 323.786,345.738 325.5,344.5 Z"/></g>
<g><path style="opacity:1" fill="#d0142c" d="M 194.5,350.5 C 225.408,354.935 256.408,355.601 287.5,352.5C 287.827,394.906 287.494,437.239 286.5,479.5C 255.649,484.048 224.982,483.048 194.5,476.5C 194.5,434.5 194.5,392.5 194.5,350.5 Z"/></g>
<g><path style="opacity:1" fill="#8394bf" d="M 320.5,341.5 C 319.549,342.919 319.216,344.585 319.5,346.5C 318.839,388.18 319.506,429.513 321.5,470.5C 320.791,471.404 319.791,471.737 318.5,471.5C 318.167,427.828 318.5,384.162 319.5,340.5C 320.107,340.624 320.44,340.957 320.5,341.5 Z"/></g>
<g><path style="opacity:1" fill="#01237d" d="M 162.5,340.5 C 163.499,381.997 163.832,423.663 163.5,465.5C 123.473,449.653 90.14,424.82 63.5,391C 96.561,374.137 129.561,357.303 162.5,340.5 Z"/></g>
<g><path style="opacity:1" fill="#375295" d="M 320.5,341.5 C 322.434,342.11 324.101,343.11 325.5,344.5C 323.786,345.738 321.786,346.405 319.5,346.5C 319.216,344.585 319.549,342.919 320.5,341.5 Z"/></g>
<g><path style="opacity:1" fill="#da4356" d="M 118.5,327.5 C 130.345,327.172 142.012,327.505 153.5,328.5C 147.708,330.896 142.041,333.563 136.5,336.5C 130.541,333.521 124.541,330.521 118.5,327.5 Z"/></g>
<g><path style="opacity:1" fill="#d0162c" d="M 398.5,328.5 C 421.327,327.502 444.327,327.169 467.5,327.5C 464.904,337.699 460.904,347.366 455.5,356.5C 436.601,346.884 417.601,337.55 398.5,328.5 Z"/></g>
<g><path style="opacity:1" fill="#d0152c" d="M 85.5,327.5 C 96.5,327.5 107.5,327.5 118.5,327.5C 124.541,330.521 130.541,333.521 136.5,336.5C 109.193,350.153 81.8599,363.82 54.5,377.5C 48.3398,369.349 43.3398,360.516 39.5,351C 54.3903,342.388 69.7237,334.554 85.5,327.5 Z"/></g>
<g><path style="opacity:1" fill="#f2c2c9" d="M 467.5,327.5 C 444.327,327.169 421.327,327.502 398.5,328.5C 397.957,328.44 397.624,328.107 397.5,327.5C 420.997,326.171 444.33,326.171 467.5,327.5 Z"/></g>
<g><path style="opacity:1" fill="#f3ccd0" d="M 85.5,327.5 C 108.663,326.337 131.996,326.17 155.5,327C 154.956,327.717 154.289,328.217 153.5,328.5C 142.012,327.505 130.345,327.172 118.5,327.5C 107.5,327.5 96.5,327.5 85.5,327.5 Z"/></g>
<g><path style="opacity:1" fill="#ea97a2" d="M 430.5,295.5 C 446.167,295.5 461.833,295.5 477.5,295.5C 414.669,296.499 351.669,296.832 288.5,296.5C 289.163,357.842 288.496,418.842 286.5,479.5C 287.494,437.239 287.827,394.906 287.5,352.5C 287.5,333.5 287.5,314.5 287.5,295.5C 335.167,295.5 382.833,295.5 430.5,295.5 Z"/></g>
</svg>
