<?xml version="1.0" standalone="no"?>
<!DOCTYPE svg PUBLIC "-//W3C//DTD SVG 20010904//EN"
 "http://www.w3.org/TR/2001/REC-SVG-20010904/DTD/svg10.dtd">
<svg version="1.0" xmlns="http://www.w3.org/2000/svg"
 width="512.000000pt" height="512.000000pt" viewBox="0 0 512.000000 512.000000"
 preserveAspectRatio="xMidYMid meet">

<g transform="translate(0.000000,512.000000) scale(0.100000,-0.100000)"
fill="#000000" stroke="none">
<path d="M1575 4921 c-542 -226 -1009 -654 -1280 -1173 -198 -381 -289 -753
-289 -1188 0 -271 28 -475 99 -719 167 -574 537 -1074 1045 -1413 127 -85 351
-203 468 -246 l52 -20 0 2399 c0 1319 -1 2399 -2 2398 -2 0 -43 -17 -93 -38z"/>
<path d="M3450 2560 l0 -2399 48 17 c87 31 366 177 467 244 308 205 592 499
781 808 124 204 231 456 289 684 45 180 63 292 77 488 24 335 -31 717 -147
1034 -53 143 -183 403 -264 524 -199 301 -479 576 -777 765 -88 56 -349 188
-431 219 l-43 16 0 -2400z"/>
</g>
</svg>
